<mxfile host="app.diagrams.net" agent="Mozilla/5.0 (Windows NT 10.0; Win64; x64) AppleWebKit/537.36 (KHTML, like Gecko) Chrome/138.0.0.0 Safari/537.36" version="28.0.3">
  <diagram name="第 1 页" id="qVhMyJ4GFEuaJN8UUqD1">
    <mxGraphModel dx="1336" dy="767" grid="1" gridSize="10" guides="1" tooltips="1" connect="1" arrows="1" fold="1" page="1" pageScale="1" pageWidth="827" pageHeight="1169" math="0" shadow="0">
      <root>
        <mxCell id="0" />
        <mxCell id="1" parent="0" />
        <mxCell id="1PzzervLume55XSzth8z-1" value="" style="rounded=0;whiteSpace=wrap;html=1;fillColor=none;dashed=1;" vertex="1" parent="1">
          <mxGeometry x="290" y="169.1" width="270" height="430" as="geometry" />
        </mxCell>
        <mxCell id="1PzzervLume55XSzth8z-2" value="" style="rounded=0;whiteSpace=wrap;html=1;" vertex="1" parent="1">
          <mxGeometry x="322" y="177.27999999999994" width="151.25" height="120" as="geometry" />
        </mxCell>
        <mxCell id="1PzzervLume55XSzth8z-3" value="" style="shape=waypoint;sketch=0;fillStyle=solid;size=6;pointerEvents=1;points=[];fillColor=none;resizable=0;rotatable=0;perimeter=centerPerimeter;snapToPoint=1;strokeWidth=5;strokeColor=#0000FF;" vertex="1" parent="1">
          <mxGeometry x="337.6199999999999" y="207.27999999999994" width="20" height="20" as="geometry" />
        </mxCell>
        <mxCell id="1PzzervLume55XSzth8z-4" value="" style="shape=waypoint;sketch=0;fillStyle=solid;size=6;pointerEvents=1;points=[];fillColor=none;resizable=0;rotatable=0;perimeter=centerPerimeter;snapToPoint=1;strokeWidth=5;strokeColor=#0000FF;" vertex="1" parent="1">
          <mxGeometry x="382.6199999999999" y="207.27999999999994" width="20" height="20" as="geometry" />
        </mxCell>
        <mxCell id="1PzzervLume55XSzth8z-5" value="" style="shape=waypoint;sketch=0;fillStyle=solid;size=6;pointerEvents=1;points=[];fillColor=none;resizable=0;rotatable=0;perimeter=centerPerimeter;snapToPoint=1;strokeWidth=5;strokeColor=#0000FF;" vertex="1" parent="1">
          <mxGeometry x="350.6199999999999" y="257.28" width="20" height="20" as="geometry" />
        </mxCell>
        <mxCell id="1PzzervLume55XSzth8z-6" value="" style="shape=waypoint;sketch=0;fillStyle=solid;size=6;pointerEvents=1;points=[];fillColor=none;resizable=0;rotatable=0;perimeter=centerPerimeter;snapToPoint=1;strokeWidth=5;strokeColor=#0000FF;" vertex="1" parent="1">
          <mxGeometry x="427.6199999999999" y="187.27999999999994" width="20" height="20" as="geometry" />
        </mxCell>
        <mxCell id="1PzzervLume55XSzth8z-7" value="" style="shape=waypoint;sketch=0;fillStyle=solid;size=6;pointerEvents=1;points=[];fillColor=none;resizable=0;rotatable=0;perimeter=centerPerimeter;snapToPoint=1;strokeWidth=5;strokeColor=#0000FF;" vertex="1" parent="1">
          <mxGeometry x="441.6199999999999" y="227.27999999999994" width="20" height="20" as="geometry" />
        </mxCell>
        <mxCell id="1PzzervLume55XSzth8z-8" value="" style="shape=waypoint;sketch=0;fillStyle=solid;size=6;pointerEvents=1;points=[];fillColor=none;resizable=0;rotatable=0;perimeter=centerPerimeter;snapToPoint=1;strokeWidth=5;strokeColor=#0000FF;" vertex="1" parent="1">
          <mxGeometry x="417.6199999999999" y="267.28" width="20" height="20" as="geometry" />
        </mxCell>
        <mxCell id="1PzzervLume55XSzth8z-9" value="" style="shape=waypoint;sketch=0;fillStyle=solid;size=6;pointerEvents=1;points=[];fillColor=none;resizable=0;rotatable=0;perimeter=centerPerimeter;snapToPoint=1;strokeWidth=5;strokeColor=#0000FF;" vertex="1" parent="1">
          <mxGeometry x="377.6199999999999" y="237.27999999999994" width="20" height="20" as="geometry" />
        </mxCell>
        <mxCell id="1PzzervLume55XSzth8z-10" value="" style="shape=waypoint;sketch=0;fillStyle=solid;size=6;pointerEvents=1;points=[];fillColor=none;resizable=0;rotatable=0;perimeter=centerPerimeter;snapToPoint=1;strokeWidth=5;strokeColor=#0000FF;" vertex="1" parent="1">
          <mxGeometry x="412.6199999999999" y="227.27999999999994" width="20" height="20" as="geometry" />
        </mxCell>
        <mxCell id="1PzzervLume55XSzth8z-11" value="" style="shape=waypoint;sketch=0;fillStyle=solid;size=6;pointerEvents=1;points=[];fillColor=none;resizable=0;rotatable=0;perimeter=centerPerimeter;snapToPoint=1;strokeWidth=5;strokeColor=#0000FF;" vertex="1" parent="1">
          <mxGeometry x="367.6300000000001" y="187.27999999999994" width="20" height="20" as="geometry" />
        </mxCell>
        <mxCell id="1PzzervLume55XSzth8z-12" value="" style="endArrow=none;html=1;rounded=0;" edge="1" parent="1" source="1PzzervLume55XSzth8z-4">
          <mxGeometry width="50" height="50" relative="1" as="geometry">
            <mxPoint x="417.6199999999999" y="337.28" as="sourcePoint" />
            <mxPoint x="387.6199999999999" y="247.27999999999994" as="targetPoint" />
          </mxGeometry>
        </mxCell>
        <mxCell id="1PzzervLume55XSzth8z-13" value="" style="endArrow=none;html=1;rounded=0;exitX=0.687;exitY=0.893;exitDx=0;exitDy=0;exitPerimeter=0;entryX=0.05;entryY=0.767;entryDx=0;entryDy=0;entryPerimeter=0;" edge="1" parent="1" source="1PzzervLume55XSzth8z-9" target="1PzzervLume55XSzth8z-10">
          <mxGeometry width="50" height="50" relative="1" as="geometry">
            <mxPoint x="417.6199999999999" y="337.28" as="sourcePoint" />
            <mxPoint x="467.6199999999999" y="287.28" as="targetPoint" />
          </mxGeometry>
        </mxCell>
        <mxCell id="1PzzervLume55XSzth8z-14" value="" style="endArrow=none;html=1;rounded=0;entryX=0.27;entryY=0.928;entryDx=0;entryDy=0;entryPerimeter=0;" edge="1" parent="1" source="1PzzervLume55XSzth8z-5" target="1PzzervLume55XSzth8z-9">
          <mxGeometry width="50" height="50" relative="1" as="geometry">
            <mxPoint x="387.6199999999999" y="337.28" as="sourcePoint" />
            <mxPoint x="437.6199999999999" y="287.28" as="targetPoint" />
          </mxGeometry>
        </mxCell>
        <mxCell id="1PzzervLume55XSzth8z-15" value="" style="rounded=0;whiteSpace=wrap;html=1;" vertex="1" parent="1">
          <mxGeometry x="341.3699999999999" y="195.27999999999994" width="151.25" height="120" as="geometry" />
        </mxCell>
        <mxCell id="1PzzervLume55XSzth8z-16" value="" style="shape=waypoint;sketch=0;fillStyle=solid;size=6;pointerEvents=1;points=[];fillColor=none;resizable=0;rotatable=0;perimeter=centerPerimeter;snapToPoint=1;strokeWidth=5;strokeColor=#0000FF;" vertex="1" parent="1">
          <mxGeometry x="356.9899999999998" y="225.27999999999994" width="20" height="20" as="geometry" />
        </mxCell>
        <mxCell id="1PzzervLume55XSzth8z-17" value="" style="shape=waypoint;sketch=0;fillStyle=solid;size=6;pointerEvents=1;points=[];fillColor=none;resizable=0;rotatable=0;perimeter=centerPerimeter;snapToPoint=1;strokeWidth=5;strokeColor=#0000FF;" vertex="1" parent="1">
          <mxGeometry x="401.9899999999998" y="225.27999999999994" width="20" height="20" as="geometry" />
        </mxCell>
        <mxCell id="1PzzervLume55XSzth8z-18" value="" style="shape=waypoint;sketch=0;fillStyle=solid;size=6;pointerEvents=1;points=[];fillColor=none;resizable=0;rotatable=0;perimeter=centerPerimeter;snapToPoint=1;strokeWidth=5;strokeColor=#0000FF;" vertex="1" parent="1">
          <mxGeometry x="369.9899999999998" y="275.28" width="20" height="20" as="geometry" />
        </mxCell>
        <mxCell id="1PzzervLume55XSzth8z-19" value="" style="shape=waypoint;sketch=0;fillStyle=solid;size=6;pointerEvents=1;points=[];fillColor=none;resizable=0;rotatable=0;perimeter=centerPerimeter;snapToPoint=1;strokeWidth=5;strokeColor=#0000FF;" vertex="1" parent="1">
          <mxGeometry x="446.9899999999998" y="205.27999999999994" width="20" height="20" as="geometry" />
        </mxCell>
        <mxCell id="1PzzervLume55XSzth8z-20" value="" style="shape=waypoint;sketch=0;fillStyle=solid;size=6;pointerEvents=1;points=[];fillColor=none;resizable=0;rotatable=0;perimeter=centerPerimeter;snapToPoint=1;strokeWidth=5;strokeColor=#0000FF;" vertex="1" parent="1">
          <mxGeometry x="460.9899999999998" y="245.27999999999994" width="20" height="20" as="geometry" />
        </mxCell>
        <mxCell id="1PzzervLume55XSzth8z-21" value="" style="shape=waypoint;sketch=0;fillStyle=solid;size=6;pointerEvents=1;points=[];fillColor=none;resizable=0;rotatable=0;perimeter=centerPerimeter;snapToPoint=1;strokeWidth=5;strokeColor=#0000FF;" vertex="1" parent="1">
          <mxGeometry x="436.9899999999998" y="285.28" width="20" height="20" as="geometry" />
        </mxCell>
        <mxCell id="1PzzervLume55XSzth8z-22" value="" style="shape=waypoint;sketch=0;fillStyle=solid;size=6;pointerEvents=1;points=[];fillColor=none;resizable=0;rotatable=0;perimeter=centerPerimeter;snapToPoint=1;strokeWidth=5;strokeColor=#0000FF;" vertex="1" parent="1">
          <mxGeometry x="396.9899999999998" y="255.27999999999994" width="20" height="20" as="geometry" />
        </mxCell>
        <mxCell id="1PzzervLume55XSzth8z-23" value="" style="shape=waypoint;sketch=0;fillStyle=solid;size=6;pointerEvents=1;points=[];fillColor=none;resizable=0;rotatable=0;perimeter=centerPerimeter;snapToPoint=1;strokeWidth=5;strokeColor=#0000FF;" vertex="1" parent="1">
          <mxGeometry x="431.9899999999998" y="245.27999999999994" width="20" height="20" as="geometry" />
        </mxCell>
        <mxCell id="1PzzervLume55XSzth8z-24" value="" style="shape=waypoint;sketch=0;fillStyle=solid;size=6;pointerEvents=1;points=[];fillColor=none;resizable=0;rotatable=0;perimeter=centerPerimeter;snapToPoint=1;strokeWidth=5;strokeColor=#0000FF;" vertex="1" parent="1">
          <mxGeometry x="387" y="205.27999999999994" width="20" height="20" as="geometry" />
        </mxCell>
        <mxCell id="1PzzervLume55XSzth8z-25" value="" style="endArrow=none;html=1;rounded=0;" edge="1" parent="1" source="1PzzervLume55XSzth8z-17">
          <mxGeometry width="50" height="50" relative="1" as="geometry">
            <mxPoint x="436.9899999999998" y="355.28" as="sourcePoint" />
            <mxPoint x="406.9899999999998" y="265.28" as="targetPoint" />
          </mxGeometry>
        </mxCell>
        <mxCell id="1PzzervLume55XSzth8z-26" value="" style="endArrow=none;html=1;rounded=0;exitX=0.687;exitY=0.893;exitDx=0;exitDy=0;exitPerimeter=0;entryX=0.05;entryY=0.767;entryDx=0;entryDy=0;entryPerimeter=0;" edge="1" parent="1" source="1PzzervLume55XSzth8z-22" target="1PzzervLume55XSzth8z-23">
          <mxGeometry width="50" height="50" relative="1" as="geometry">
            <mxPoint x="436.9899999999998" y="355.28" as="sourcePoint" />
            <mxPoint x="486.9899999999998" y="305.28" as="targetPoint" />
          </mxGeometry>
        </mxCell>
        <mxCell id="1PzzervLume55XSzth8z-27" value="" style="endArrow=none;html=1;rounded=0;entryX=0.27;entryY=0.928;entryDx=0;entryDy=0;entryPerimeter=0;" edge="1" parent="1" source="1PzzervLume55XSzth8z-18" target="1PzzervLume55XSzth8z-22">
          <mxGeometry width="50" height="50" relative="1" as="geometry">
            <mxPoint x="406.9899999999998" y="355.28" as="sourcePoint" />
            <mxPoint x="456.9899999999998" y="305.28" as="targetPoint" />
          </mxGeometry>
        </mxCell>
        <mxCell id="1PzzervLume55XSzth8z-28" value="" style="rounded=0;whiteSpace=wrap;html=1;" vertex="1" parent="1">
          <mxGeometry x="381.3600000000001" y="235.27999999999994" width="151.25" height="120" as="geometry" />
        </mxCell>
        <mxCell id="1PzzervLume55XSzth8z-29" value="" style="shape=waypoint;sketch=0;fillStyle=solid;size=6;pointerEvents=1;points=[];fillColor=none;resizable=0;rotatable=0;perimeter=centerPerimeter;snapToPoint=1;strokeWidth=5;strokeColor=#0000FF;" vertex="1" parent="1">
          <mxGeometry x="396.98" y="265.28" width="20" height="20" as="geometry" />
        </mxCell>
        <mxCell id="1PzzervLume55XSzth8z-30" value="" style="shape=waypoint;sketch=0;fillStyle=solid;size=6;pointerEvents=1;points=[];fillColor=none;resizable=0;rotatable=0;perimeter=centerPerimeter;snapToPoint=1;strokeWidth=5;strokeColor=#0000FF;" vertex="1" parent="1">
          <mxGeometry x="441.98" y="265.28" width="20" height="20" as="geometry" />
        </mxCell>
        <mxCell id="1PzzervLume55XSzth8z-31" value="" style="shape=waypoint;sketch=0;fillStyle=solid;size=6;pointerEvents=1;points=[];fillColor=none;resizable=0;rotatable=0;perimeter=centerPerimeter;snapToPoint=1;strokeWidth=5;strokeColor=#0000FF;" vertex="1" parent="1">
          <mxGeometry x="409.98" y="315.28" width="20" height="20" as="geometry" />
        </mxCell>
        <mxCell id="1PzzervLume55XSzth8z-32" value="" style="shape=waypoint;sketch=0;fillStyle=solid;size=6;pointerEvents=1;points=[];fillColor=none;resizable=0;rotatable=0;perimeter=centerPerimeter;snapToPoint=1;strokeWidth=5;strokeColor=#0000FF;" vertex="1" parent="1">
          <mxGeometry x="486.98" y="245.27999999999994" width="20" height="20" as="geometry" />
        </mxCell>
        <mxCell id="1PzzervLume55XSzth8z-33" value="" style="shape=waypoint;sketch=0;fillStyle=solid;size=6;pointerEvents=1;points=[];fillColor=none;resizable=0;rotatable=0;perimeter=centerPerimeter;snapToPoint=1;strokeWidth=5;strokeColor=#0000FF;" vertex="1" parent="1">
          <mxGeometry x="500.98" y="285.28" width="20" height="20" as="geometry" />
        </mxCell>
        <mxCell id="1PzzervLume55XSzth8z-34" value="" style="shape=waypoint;sketch=0;fillStyle=solid;size=6;pointerEvents=1;points=[];fillColor=none;resizable=0;rotatable=0;perimeter=centerPerimeter;snapToPoint=1;strokeWidth=5;strokeColor=#0000FF;" vertex="1" parent="1">
          <mxGeometry x="476.98" y="325.28" width="20" height="20" as="geometry" />
        </mxCell>
        <mxCell id="1PzzervLume55XSzth8z-35" value="" style="shape=waypoint;sketch=0;fillStyle=solid;size=6;pointerEvents=1;points=[];fillColor=none;resizable=0;rotatable=0;perimeter=centerPerimeter;snapToPoint=1;strokeWidth=5;strokeColor=#FF0000;" vertex="1" parent="1">
          <mxGeometry x="436.98" y="295.28" width="20" height="20" as="geometry" />
        </mxCell>
        <mxCell id="1PzzervLume55XSzth8z-36" value="" style="shape=waypoint;sketch=0;fillStyle=solid;size=6;pointerEvents=1;points=[];fillColor=none;resizable=0;rotatable=0;perimeter=centerPerimeter;snapToPoint=1;strokeWidth=5;strokeColor=#0000FF;" vertex="1" parent="1">
          <mxGeometry x="471.98" y="285.28" width="20" height="20" as="geometry" />
        </mxCell>
        <mxCell id="1PzzervLume55XSzth8z-37" value="" style="shape=waypoint;sketch=0;fillStyle=solid;size=6;pointerEvents=1;points=[];fillColor=none;resizable=0;rotatable=0;perimeter=centerPerimeter;snapToPoint=1;strokeWidth=5;strokeColor=#0000FF;" vertex="1" parent="1">
          <mxGeometry x="426.9899999999998" y="245.27999999999994" width="20" height="20" as="geometry" />
        </mxCell>
        <mxCell id="1PzzervLume55XSzth8z-38" value="" style="endArrow=none;html=1;rounded=0;" edge="1" parent="1" source="1PzzervLume55XSzth8z-30">
          <mxGeometry width="50" height="50" relative="1" as="geometry">
            <mxPoint x="476.98" y="395.28" as="sourcePoint" />
            <mxPoint x="446.98" y="305.28" as="targetPoint" />
          </mxGeometry>
        </mxCell>
        <mxCell id="1PzzervLume55XSzth8z-39" value="" style="endArrow=none;html=1;rounded=0;exitX=0.687;exitY=0.893;exitDx=0;exitDy=0;exitPerimeter=0;entryX=0.05;entryY=0.767;entryDx=0;entryDy=0;entryPerimeter=0;" edge="1" parent="1" source="1PzzervLume55XSzth8z-35" target="1PzzervLume55XSzth8z-36">
          <mxGeometry width="50" height="50" relative="1" as="geometry">
            <mxPoint x="476.98" y="395.28" as="sourcePoint" />
            <mxPoint x="526.98" y="345.28" as="targetPoint" />
          </mxGeometry>
        </mxCell>
        <mxCell id="1PzzervLume55XSzth8z-40" value="" style="endArrow=none;html=1;rounded=0;entryX=0.27;entryY=0.928;entryDx=0;entryDy=0;entryPerimeter=0;" edge="1" parent="1" source="1PzzervLume55XSzth8z-31" target="1PzzervLume55XSzth8z-35">
          <mxGeometry width="50" height="50" relative="1" as="geometry">
            <mxPoint x="446.98" y="395.28" as="sourcePoint" />
            <mxPoint x="496.98" y="345.28" as="targetPoint" />
          </mxGeometry>
        </mxCell>
        <mxCell id="1PzzervLume55XSzth8z-41" value="" style="endArrow=classic;html=1;rounded=0;" edge="1" parent="1">
          <mxGeometry width="50" height="50" relative="1" as="geometry">
            <mxPoint x="317.6199999999999" y="307.28" as="sourcePoint" />
            <mxPoint x="370.6199999999999" y="357.28" as="targetPoint" />
          </mxGeometry>
        </mxCell>
        <mxCell id="1PzzervLume55XSzth8z-42" value="" style="endArrow=none;dashed=1;html=1;dashPattern=1 3;strokeWidth=2;rounded=0;" edge="1" parent="1">
          <mxGeometry width="50" height="50" relative="1" as="geometry">
            <mxPoint x="347.6199999999999" y="317.28" as="sourcePoint" />
            <mxPoint x="377.6199999999999" y="347.28" as="targetPoint" />
          </mxGeometry>
        </mxCell>
        <mxCell id="1PzzervLume55XSzth8z-43" value="时间" style="text;html=1;align=center;verticalAlign=middle;resizable=0;points=[];autosize=1;strokeColor=none;fillColor=none;" vertex="1" parent="1">
          <mxGeometry x="300.6199999999999" y="320.28" width="50" height="30" as="geometry" />
        </mxCell>
        <mxCell id="1PzzervLume55XSzth8z-44" value="距离" style="text;html=1;align=center;verticalAlign=middle;resizable=0;points=[];autosize=1;strokeColor=none;fillColor=none;" vertex="1" parent="1">
          <mxGeometry x="397.6199999999999" y="290.28" width="50" height="30" as="geometry" />
        </mxCell>
        <mxCell id="1PzzervLume55XSzth8z-45" value="空气污染数据" style="text;html=1;align=center;verticalAlign=middle;resizable=0;points=[];autosize=1;strokeColor=none;fillColor=none;" vertex="1" parent="1">
          <mxGeometry x="396.98" y="355.28" width="100" height="30" as="geometry" />
        </mxCell>
        <mxCell id="1PzzervLume55XSzth8z-46" value="" style="rounded=0;whiteSpace=wrap;html=1;" vertex="1" parent="1">
          <mxGeometry x="321.37999999999965" y="392.90999999999997" width="151.25" height="120" as="geometry" />
        </mxCell>
        <mxCell id="1PzzervLume55XSzth8z-47" value="" style="shape=waypoint;sketch=0;fillStyle=solid;size=6;pointerEvents=1;points=[];fillColor=none;resizable=0;rotatable=0;perimeter=centerPerimeter;snapToPoint=1;strokeWidth=5;strokeColor=#0000FF;" vertex="1" parent="1">
          <mxGeometry x="337" y="422.90999999999997" width="20" height="20" as="geometry" />
        </mxCell>
        <mxCell id="1PzzervLume55XSzth8z-48" value="" style="shape=waypoint;sketch=0;fillStyle=solid;size=6;pointerEvents=1;points=[];fillColor=none;resizable=0;rotatable=0;perimeter=centerPerimeter;snapToPoint=1;strokeWidth=5;strokeColor=#0000FF;" vertex="1" parent="1">
          <mxGeometry x="382" y="422.90999999999997" width="20" height="20" as="geometry" />
        </mxCell>
        <mxCell id="1PzzervLume55XSzth8z-49" value="" style="shape=waypoint;sketch=0;fillStyle=solid;size=6;pointerEvents=1;points=[];fillColor=none;resizable=0;rotatable=0;perimeter=centerPerimeter;snapToPoint=1;strokeWidth=5;strokeColor=#0000FF;" vertex="1" parent="1">
          <mxGeometry x="350" y="472.90999999999997" width="20" height="20" as="geometry" />
        </mxCell>
        <mxCell id="1PzzervLume55XSzth8z-50" value="" style="shape=waypoint;sketch=0;fillStyle=solid;size=6;pointerEvents=1;points=[];fillColor=none;resizable=0;rotatable=0;perimeter=centerPerimeter;snapToPoint=1;strokeWidth=5;strokeColor=#0000FF;" vertex="1" parent="1">
          <mxGeometry x="427" y="402.90999999999997" width="20" height="20" as="geometry" />
        </mxCell>
        <mxCell id="1PzzervLume55XSzth8z-51" value="" style="shape=waypoint;sketch=0;fillStyle=solid;size=6;pointerEvents=1;points=[];fillColor=none;resizable=0;rotatable=0;perimeter=centerPerimeter;snapToPoint=1;strokeWidth=5;strokeColor=#0000FF;" vertex="1" parent="1">
          <mxGeometry x="441" y="442.90999999999997" width="20" height="20" as="geometry" />
        </mxCell>
        <mxCell id="1PzzervLume55XSzth8z-52" value="" style="shape=waypoint;sketch=0;fillStyle=solid;size=6;pointerEvents=1;points=[];fillColor=none;resizable=0;rotatable=0;perimeter=centerPerimeter;snapToPoint=1;strokeWidth=5;strokeColor=#0000FF;" vertex="1" parent="1">
          <mxGeometry x="417" y="482.90999999999997" width="20" height="20" as="geometry" />
        </mxCell>
        <mxCell id="1PzzervLume55XSzth8z-53" value="" style="shape=waypoint;sketch=0;fillStyle=solid;size=6;pointerEvents=1;points=[];fillColor=none;resizable=0;rotatable=0;perimeter=centerPerimeter;snapToPoint=1;strokeWidth=5;strokeColor=#0000FF;" vertex="1" parent="1">
          <mxGeometry x="377" y="452.90999999999997" width="20" height="20" as="geometry" />
        </mxCell>
        <mxCell id="1PzzervLume55XSzth8z-54" value="" style="shape=waypoint;sketch=0;fillStyle=solid;size=6;pointerEvents=1;points=[];fillColor=none;resizable=0;rotatable=0;perimeter=centerPerimeter;snapToPoint=1;strokeWidth=5;strokeColor=#0000FF;" vertex="1" parent="1">
          <mxGeometry x="412" y="442.90999999999997" width="20" height="20" as="geometry" />
        </mxCell>
        <mxCell id="1PzzervLume55XSzth8z-55" value="" style="shape=waypoint;sketch=0;fillStyle=solid;size=6;pointerEvents=1;points=[];fillColor=none;resizable=0;rotatable=0;perimeter=centerPerimeter;snapToPoint=1;strokeWidth=5;strokeColor=#0000FF;" vertex="1" parent="1">
          <mxGeometry x="367.00999999999976" y="402.90999999999997" width="20" height="20" as="geometry" />
        </mxCell>
        <mxCell id="1PzzervLume55XSzth8z-56" value="" style="endArrow=none;html=1;rounded=0;" edge="1" parent="1" source="1PzzervLume55XSzth8z-48">
          <mxGeometry width="50" height="50" relative="1" as="geometry">
            <mxPoint x="417" y="552.91" as="sourcePoint" />
            <mxPoint x="387" y="462.90999999999997" as="targetPoint" />
          </mxGeometry>
        </mxCell>
        <mxCell id="1PzzervLume55XSzth8z-57" value="" style="endArrow=none;html=1;rounded=0;exitX=0.687;exitY=0.893;exitDx=0;exitDy=0;exitPerimeter=0;entryX=0.05;entryY=0.767;entryDx=0;entryDy=0;entryPerimeter=0;" edge="1" parent="1" source="1PzzervLume55XSzth8z-53" target="1PzzervLume55XSzth8z-54">
          <mxGeometry width="50" height="50" relative="1" as="geometry">
            <mxPoint x="417" y="552.91" as="sourcePoint" />
            <mxPoint x="467" y="502.90999999999997" as="targetPoint" />
          </mxGeometry>
        </mxCell>
        <mxCell id="1PzzervLume55XSzth8z-58" value="" style="endArrow=none;html=1;rounded=0;entryX=0.27;entryY=0.928;entryDx=0;entryDy=0;entryPerimeter=0;" edge="1" parent="1" source="1PzzervLume55XSzth8z-49" target="1PzzervLume55XSzth8z-53">
          <mxGeometry width="50" height="50" relative="1" as="geometry">
            <mxPoint x="387" y="552.91" as="sourcePoint" />
            <mxPoint x="437" y="502.90999999999997" as="targetPoint" />
          </mxGeometry>
        </mxCell>
        <mxCell id="1PzzervLume55XSzth8z-59" value="" style="rounded=0;whiteSpace=wrap;html=1;" vertex="1" parent="1">
          <mxGeometry x="340.75" y="410.90999999999997" width="151.25" height="120" as="geometry" />
        </mxCell>
        <mxCell id="1PzzervLume55XSzth8z-60" value="" style="shape=waypoint;sketch=0;fillStyle=solid;size=6;pointerEvents=1;points=[];fillColor=none;resizable=0;rotatable=0;perimeter=centerPerimeter;snapToPoint=1;strokeWidth=5;strokeColor=#0000FF;" vertex="1" parent="1">
          <mxGeometry x="356.3699999999999" y="440.90999999999997" width="20" height="20" as="geometry" />
        </mxCell>
        <mxCell id="1PzzervLume55XSzth8z-61" value="" style="shape=waypoint;sketch=0;fillStyle=solid;size=6;pointerEvents=1;points=[];fillColor=none;resizable=0;rotatable=0;perimeter=centerPerimeter;snapToPoint=1;strokeWidth=5;strokeColor=#0000FF;" vertex="1" parent="1">
          <mxGeometry x="401.3699999999999" y="440.90999999999997" width="20" height="20" as="geometry" />
        </mxCell>
        <mxCell id="1PzzervLume55XSzth8z-62" value="" style="shape=waypoint;sketch=0;fillStyle=solid;size=6;pointerEvents=1;points=[];fillColor=none;resizable=0;rotatable=0;perimeter=centerPerimeter;snapToPoint=1;strokeWidth=5;strokeColor=#0000FF;" vertex="1" parent="1">
          <mxGeometry x="369.3699999999999" y="490.90999999999997" width="20" height="20" as="geometry" />
        </mxCell>
        <mxCell id="1PzzervLume55XSzth8z-63" value="" style="shape=waypoint;sketch=0;fillStyle=solid;size=6;pointerEvents=1;points=[];fillColor=none;resizable=0;rotatable=0;perimeter=centerPerimeter;snapToPoint=1;strokeWidth=5;strokeColor=#0000FF;" vertex="1" parent="1">
          <mxGeometry x="446.3699999999999" y="420.90999999999997" width="20" height="20" as="geometry" />
        </mxCell>
        <mxCell id="1PzzervLume55XSzth8z-64" value="" style="shape=waypoint;sketch=0;fillStyle=solid;size=6;pointerEvents=1;points=[];fillColor=none;resizable=0;rotatable=0;perimeter=centerPerimeter;snapToPoint=1;strokeWidth=5;strokeColor=#0000FF;" vertex="1" parent="1">
          <mxGeometry x="460.3699999999999" y="460.90999999999997" width="20" height="20" as="geometry" />
        </mxCell>
        <mxCell id="1PzzervLume55XSzth8z-65" value="" style="shape=waypoint;sketch=0;fillStyle=solid;size=6;pointerEvents=1;points=[];fillColor=none;resizable=0;rotatable=0;perimeter=centerPerimeter;snapToPoint=1;strokeWidth=5;strokeColor=#0000FF;" vertex="1" parent="1">
          <mxGeometry x="436.3699999999999" y="500.90999999999997" width="20" height="20" as="geometry" />
        </mxCell>
        <mxCell id="1PzzervLume55XSzth8z-66" value="" style="shape=waypoint;sketch=0;fillStyle=solid;size=6;pointerEvents=1;points=[];fillColor=none;resizable=0;rotatable=0;perimeter=centerPerimeter;snapToPoint=1;strokeWidth=5;strokeColor=#0000FF;" vertex="1" parent="1">
          <mxGeometry x="396.3699999999999" y="470.90999999999997" width="20" height="20" as="geometry" />
        </mxCell>
        <mxCell id="1PzzervLume55XSzth8z-67" value="" style="shape=waypoint;sketch=0;fillStyle=solid;size=6;pointerEvents=1;points=[];fillColor=none;resizable=0;rotatable=0;perimeter=centerPerimeter;snapToPoint=1;strokeWidth=5;strokeColor=#0000FF;" vertex="1" parent="1">
          <mxGeometry x="431.3699999999999" y="460.90999999999997" width="20" height="20" as="geometry" />
        </mxCell>
        <mxCell id="1PzzervLume55XSzth8z-68" value="" style="shape=waypoint;sketch=0;fillStyle=solid;size=6;pointerEvents=1;points=[];fillColor=none;resizable=0;rotatable=0;perimeter=centerPerimeter;snapToPoint=1;strokeWidth=5;strokeColor=#0000FF;" vertex="1" parent="1">
          <mxGeometry x="386.37999999999965" y="420.90999999999997" width="20" height="20" as="geometry" />
        </mxCell>
        <mxCell id="1PzzervLume55XSzth8z-69" value="" style="endArrow=none;html=1;rounded=0;" edge="1" parent="1" source="1PzzervLume55XSzth8z-61">
          <mxGeometry width="50" height="50" relative="1" as="geometry">
            <mxPoint x="436.3699999999999" y="570.91" as="sourcePoint" />
            <mxPoint x="406.3699999999999" y="480.90999999999997" as="targetPoint" />
          </mxGeometry>
        </mxCell>
        <mxCell id="1PzzervLume55XSzth8z-70" value="" style="endArrow=none;html=1;rounded=0;exitX=0.687;exitY=0.893;exitDx=0;exitDy=0;exitPerimeter=0;entryX=0.05;entryY=0.767;entryDx=0;entryDy=0;entryPerimeter=0;" edge="1" parent="1" source="1PzzervLume55XSzth8z-66" target="1PzzervLume55XSzth8z-67">
          <mxGeometry width="50" height="50" relative="1" as="geometry">
            <mxPoint x="436.3699999999999" y="570.91" as="sourcePoint" />
            <mxPoint x="486.3699999999999" y="520.91" as="targetPoint" />
          </mxGeometry>
        </mxCell>
        <mxCell id="1PzzervLume55XSzth8z-71" value="" style="endArrow=none;html=1;rounded=0;entryX=0.27;entryY=0.928;entryDx=0;entryDy=0;entryPerimeter=0;" edge="1" parent="1" source="1PzzervLume55XSzth8z-62" target="1PzzervLume55XSzth8z-66">
          <mxGeometry width="50" height="50" relative="1" as="geometry">
            <mxPoint x="406.3699999999999" y="570.91" as="sourcePoint" />
            <mxPoint x="456.3699999999999" y="520.91" as="targetPoint" />
          </mxGeometry>
        </mxCell>
        <mxCell id="1PzzervLume55XSzth8z-72" value="" style="rounded=0;whiteSpace=wrap;html=1;" vertex="1" parent="1">
          <mxGeometry x="380.7399999999998" y="450.90999999999997" width="151.25" height="120" as="geometry" />
        </mxCell>
        <mxCell id="1PzzervLume55XSzth8z-73" value="" style="shape=waypoint;sketch=0;fillStyle=solid;size=6;pointerEvents=1;points=[];fillColor=none;resizable=0;rotatable=0;perimeter=centerPerimeter;snapToPoint=1;strokeWidth=5;strokeColor=#0000FF;" vertex="1" parent="1">
          <mxGeometry x="396.3599999999997" y="480.90999999999997" width="20" height="20" as="geometry" />
        </mxCell>
        <mxCell id="1PzzervLume55XSzth8z-74" value="" style="shape=waypoint;sketch=0;fillStyle=solid;size=6;pointerEvents=1;points=[];fillColor=none;resizable=0;rotatable=0;perimeter=centerPerimeter;snapToPoint=1;strokeWidth=5;strokeColor=#0000FF;" vertex="1" parent="1">
          <mxGeometry x="441.3599999999997" y="480.90999999999997" width="20" height="20" as="geometry" />
        </mxCell>
        <mxCell id="1PzzervLume55XSzth8z-75" value="" style="shape=waypoint;sketch=0;fillStyle=solid;size=6;pointerEvents=1;points=[];fillColor=none;resizable=0;rotatable=0;perimeter=centerPerimeter;snapToPoint=1;strokeWidth=5;strokeColor=#0000FF;" vertex="1" parent="1">
          <mxGeometry x="409.3599999999997" y="530.91" width="20" height="20" as="geometry" />
        </mxCell>
        <mxCell id="1PzzervLume55XSzth8z-76" value="" style="shape=waypoint;sketch=0;fillStyle=solid;size=6;pointerEvents=1;points=[];fillColor=none;resizable=0;rotatable=0;perimeter=centerPerimeter;snapToPoint=1;strokeWidth=5;strokeColor=#0000FF;" vertex="1" parent="1">
          <mxGeometry x="486.3599999999997" y="460.90999999999997" width="20" height="20" as="geometry" />
        </mxCell>
        <mxCell id="1PzzervLume55XSzth8z-77" value="" style="shape=waypoint;sketch=0;fillStyle=solid;size=6;pointerEvents=1;points=[];fillColor=none;resizable=0;rotatable=0;perimeter=centerPerimeter;snapToPoint=1;strokeWidth=5;strokeColor=#0000FF;" vertex="1" parent="1">
          <mxGeometry x="500.3599999999997" y="500.90999999999997" width="20" height="20" as="geometry" />
        </mxCell>
        <mxCell id="1PzzervLume55XSzth8z-78" value="" style="shape=waypoint;sketch=0;fillStyle=solid;size=6;pointerEvents=1;points=[];fillColor=none;resizable=0;rotatable=0;perimeter=centerPerimeter;snapToPoint=1;strokeWidth=5;strokeColor=#0000FF;" vertex="1" parent="1">
          <mxGeometry x="476.3599999999997" y="540.91" width="20" height="20" as="geometry" />
        </mxCell>
        <mxCell id="1PzzervLume55XSzth8z-79" value="" style="shape=waypoint;sketch=0;fillStyle=solid;size=6;pointerEvents=1;points=[];fillColor=none;resizable=0;rotatable=0;perimeter=centerPerimeter;snapToPoint=1;strokeWidth=5;strokeColor=#FF0000;" vertex="1" parent="1">
          <mxGeometry x="436.3599999999997" y="510.90999999999997" width="20" height="20" as="geometry" />
        </mxCell>
        <mxCell id="1PzzervLume55XSzth8z-80" value="" style="shape=waypoint;sketch=0;fillStyle=solid;size=6;pointerEvents=1;points=[];fillColor=none;resizable=0;rotatable=0;perimeter=centerPerimeter;snapToPoint=1;strokeWidth=5;strokeColor=#0000FF;" vertex="1" parent="1">
          <mxGeometry x="471.3599999999997" y="500.90999999999997" width="20" height="20" as="geometry" />
        </mxCell>
        <mxCell id="1PzzervLume55XSzth8z-81" value="" style="shape=waypoint;sketch=0;fillStyle=solid;size=6;pointerEvents=1;points=[];fillColor=none;resizable=0;rotatable=0;perimeter=centerPerimeter;snapToPoint=1;strokeWidth=5;strokeColor=#0000FF;" vertex="1" parent="1">
          <mxGeometry x="426.3699999999999" y="460.90999999999997" width="20" height="20" as="geometry" />
        </mxCell>
        <mxCell id="1PzzervLume55XSzth8z-82" value="" style="endArrow=none;html=1;rounded=0;" edge="1" parent="1" source="1PzzervLume55XSzth8z-74">
          <mxGeometry width="50" height="50" relative="1" as="geometry">
            <mxPoint x="476.3599999999997" y="610.91" as="sourcePoint" />
            <mxPoint x="446.3599999999997" y="520.91" as="targetPoint" />
          </mxGeometry>
        </mxCell>
        <mxCell id="1PzzervLume55XSzth8z-83" value="" style="endArrow=none;html=1;rounded=0;exitX=0.687;exitY=0.893;exitDx=0;exitDy=0;exitPerimeter=0;entryX=0.05;entryY=0.767;entryDx=0;entryDy=0;entryPerimeter=0;" edge="1" parent="1" source="1PzzervLume55XSzth8z-79" target="1PzzervLume55XSzth8z-80">
          <mxGeometry width="50" height="50" relative="1" as="geometry">
            <mxPoint x="476.3599999999997" y="610.91" as="sourcePoint" />
            <mxPoint x="526.3599999999997" y="560.91" as="targetPoint" />
          </mxGeometry>
        </mxCell>
        <mxCell id="1PzzervLume55XSzth8z-84" value="" style="endArrow=none;html=1;rounded=0;entryX=0.27;entryY=0.928;entryDx=0;entryDy=0;entryPerimeter=0;" edge="1" parent="1" source="1PzzervLume55XSzth8z-75" target="1PzzervLume55XSzth8z-79">
          <mxGeometry width="50" height="50" relative="1" as="geometry">
            <mxPoint x="446.3599999999997" y="610.91" as="sourcePoint" />
            <mxPoint x="496.3599999999997" y="560.91" as="targetPoint" />
          </mxGeometry>
        </mxCell>
        <mxCell id="1PzzervLume55XSzth8z-85" value="" style="endArrow=classic;html=1;rounded=0;" edge="1" parent="1">
          <mxGeometry width="50" height="50" relative="1" as="geometry">
            <mxPoint x="317" y="522.91" as="sourcePoint" />
            <mxPoint x="370" y="572.91" as="targetPoint" />
          </mxGeometry>
        </mxCell>
        <mxCell id="1PzzervLume55XSzth8z-86" value="" style="endArrow=none;dashed=1;html=1;dashPattern=1 3;strokeWidth=2;rounded=0;" edge="1" parent="1">
          <mxGeometry width="50" height="50" relative="1" as="geometry">
            <mxPoint x="347" y="532.91" as="sourcePoint" />
            <mxPoint x="377" y="562.91" as="targetPoint" />
          </mxGeometry>
        </mxCell>
        <mxCell id="1PzzervLume55XSzth8z-87" value="时间" style="text;html=1;align=center;verticalAlign=middle;resizable=0;points=[];autosize=1;strokeColor=none;fillColor=none;" vertex="1" parent="1">
          <mxGeometry x="300" y="535.91" width="50" height="30" as="geometry" />
        </mxCell>
        <mxCell id="1PzzervLume55XSzth8z-88" value="距离" style="text;html=1;align=center;verticalAlign=middle;resizable=0;points=[];autosize=1;strokeColor=none;fillColor=none;" vertex="1" parent="1">
          <mxGeometry x="397" y="505.90999999999997" width="50" height="30" as="geometry" />
        </mxCell>
        <mxCell id="1PzzervLume55XSzth8z-89" value="气象数据" style="text;html=1;align=center;verticalAlign=middle;resizable=0;points=[];autosize=1;strokeColor=none;fillColor=none;" vertex="1" parent="1">
          <mxGeometry x="411.3599999999997" y="570.91" width="70" height="30" as="geometry" />
        </mxCell>
        <mxCell id="1PzzervLume55XSzth8z-90" value="&lt;font style=&quot;font-size: 18px;&quot;&gt;输入数据&lt;/font&gt;" style="rounded=1;whiteSpace=wrap;html=1;fillColor=#E6E6E6;fontColor=#333333;strokeColor=#333333;direction=south;" vertex="1" parent="1">
          <mxGeometry x="600.0000000000002" y="300" width="40" height="170" as="geometry" />
        </mxCell>
        <mxCell id="1PzzervLume55XSzth8z-91" value="&#xa;&lt;span style=&quot;color: rgb(31, 35, 40); font-family: -apple-system, BlinkMacSystemFont, &amp;quot;Segoe UI&amp;quot;, &amp;quot;Noto Sans&amp;quot;, Helvetica, Arial, sans-serif, &amp;quot;Apple Color Emoji&amp;quot;, &amp;quot;Segoe UI Emoji&amp;quot;; font-size: 16px; font-style: normal; font-variant-ligatures: normal; font-variant-caps: normal; font-weight: 400; letter-spacing: normal; orphans: 2; text-align: left; text-indent: 0px; text-transform: none; widows: 2; word-spacing: 0px; -webkit-text-stroke-width: 0px; white-space: normal; background-color: rgb(255, 255, 255); text-decoration-thickness: initial; text-decoration-style: initial; text-decoration-color: initial; display: inline !important; float: none;&quot;&gt;基于嵌入&lt;/span&gt;&#xa;&#xa;" style="rounded=1;whiteSpace=wrap;html=1;fillColor=#ffe6cc;strokeColor=#d79b00;" vertex="1" parent="1">
          <mxGeometry x="680" y="243" width="590" height="284" as="geometry" />
        </mxCell>
        <mxCell id="1PzzervLume55XSzth8z-92" value="" style="edgeStyle=orthogonalEdgeStyle;rounded=0;orthogonalLoop=1;jettySize=auto;html=1;" edge="1" parent="1" source="1PzzervLume55XSzth8z-93" target="1PzzervLume55XSzth8z-106">
          <mxGeometry relative="1" as="geometry">
            <mxPoint x="810" y="433" as="targetPoint" />
            <Array as="points">
              <mxPoint x="775" y="423" />
              <mxPoint x="975" y="423" />
            </Array>
          </mxGeometry>
        </mxCell>
        <mxCell id="1PzzervLume55XSzth8z-93" value="&lt;span style=&quot;color: rgb(31, 35, 40); font-family: -apple-system, BlinkMacSystemFont, &amp;quot;Segoe UI&amp;quot;, &amp;quot;Noto Sans&amp;quot;, Helvetica, Arial, sans-serif, &amp;quot;Apple Color Emoji&amp;quot;, &amp;quot;Segoe UI Emoji&amp;quot;; text-align: left;&quot;&gt;全局动态邻接矩阵&lt;/span&gt;" style="ellipse;whiteSpace=wrap;html=1;fontSize=18;fillColor=#fff2cc;strokeColor=#d6b656;labelBackgroundColor=none;" vertex="1" parent="1">
          <mxGeometry x="700" y="318" width="150" height="80" as="geometry" />
        </mxCell>
        <mxCell id="1PzzervLume55XSzth8z-94" value="" style="edgeStyle=orthogonalEdgeStyle;rounded=0;orthogonalLoop=1;jettySize=auto;html=1;" edge="1" parent="1" source="1PzzervLume55XSzth8z-95" target="1PzzervLume55XSzth8z-106">
          <mxGeometry relative="1" as="geometry" />
        </mxCell>
        <mxCell id="1PzzervLume55XSzth8z-95" value="&lt;span style=&quot;color: rgb(31, 35, 40); text-align: left;&quot;&gt;&lt;font face=&quot;Helvetica&quot;&gt;局部动态邻接矩阵&lt;/font&gt;&lt;/span&gt;" style="ellipse;whiteSpace=wrap;html=1;fontSize=18;fillColor=#fff2cc;strokeColor=#d6b656;labelBackgroundColor=none;" vertex="1" parent="1">
          <mxGeometry x="900" y="318" width="150" height="80" as="geometry" />
        </mxCell>
        <mxCell id="1PzzervLume55XSzth8z-96" style="edgeStyle=orthogonalEdgeStyle;rounded=0;orthogonalLoop=1;jettySize=auto;html=1;entryX=0.5;entryY=0;entryDx=0;entryDy=0;" edge="1" parent="1" source="1PzzervLume55XSzth8z-97" target="1PzzervLume55XSzth8z-106">
          <mxGeometry relative="1" as="geometry">
            <Array as="points">
              <mxPoint x="1160" y="423" />
              <mxPoint x="975" y="423" />
            </Array>
          </mxGeometry>
        </mxCell>
        <mxCell id="1PzzervLume55XSzth8z-97" value="&lt;span style=&quot;color: rgb(31, 35, 40); font-family: -apple-system, BlinkMacSystemFont, &amp;quot;Segoe UI&amp;quot;, &amp;quot;Noto Sans&amp;quot;, Helvetica, Arial, sans-serif, &amp;quot;Apple Color Emoji&amp;quot;, &amp;quot;Segoe UI Emoji&amp;quot;; text-align: left;&quot;&gt;静态邻接矩阵&lt;/span&gt;" style="ellipse;whiteSpace=wrap;html=1;fontSize=18;fillColor=#fff2cc;strokeColor=#d6b656;labelBackgroundColor=none;" vertex="1" parent="1">
          <mxGeometry x="1090" y="318" width="140" height="85" as="geometry" />
        </mxCell>
        <mxCell id="1PzzervLume55XSzth8z-98" value="" style="edgeStyle=orthogonalEdgeStyle;rounded=0;orthogonalLoop=1;jettySize=auto;html=1;" edge="1" parent="1" source="1PzzervLume55XSzth8z-99" target="1PzzervLume55XSzth8z-93">
          <mxGeometry relative="1" as="geometry" />
        </mxCell>
        <mxCell id="1PzzervLume55XSzth8z-99" value="&lt;span style=&quot;color: rgb(31, 35, 40); font-family: -apple-system, BlinkMacSystemFont, &amp;quot;Segoe UI&amp;quot;, &amp;quot;Noto Sans&amp;quot;, Helvetica, Arial, sans-serif, &amp;quot;Apple Color Emoji&amp;quot;, &amp;quot;Segoe UI Emoji&amp;quot;; font-style: normal; font-variant-ligatures: normal; font-variant-caps: normal; font-weight: 400; letter-spacing: normal; orphans: 2; text-indent: 0px; text-transform: none; widows: 2; word-spacing: 0px; -webkit-text-stroke-width: 0px; white-space: normal; text-decoration-thickness: initial; text-decoration-style: initial; text-decoration-color: initial; float: none; display: inline !important;&quot;&gt;基于嵌入和topK邻居&lt;/span&gt;" style="text;whiteSpace=wrap;html=1;align=center;fontSize=18;labelBackgroundColor=none;" vertex="1" parent="1">
          <mxGeometry x="685" y="253" width="181" height="40" as="geometry" />
        </mxCell>
        <mxCell id="1PzzervLume55XSzth8z-100" value="" style="edgeStyle=orthogonalEdgeStyle;rounded=0;orthogonalLoop=1;jettySize=auto;html=1;" edge="1" parent="1" source="1PzzervLume55XSzth8z-101" target="1PzzervLume55XSzth8z-95">
          <mxGeometry relative="1" as="geometry">
            <Array as="points">
              <mxPoint x="975" y="303" />
              <mxPoint x="975" y="303" />
            </Array>
          </mxGeometry>
        </mxCell>
        <mxCell id="1PzzervLume55XSzth8z-101" value="&lt;span style=&quot;color: rgb(31, 35, 40); font-family: -apple-system, BlinkMacSystemFont, &amp;quot;Segoe UI&amp;quot;, &amp;quot;Noto Sans&amp;quot;, Helvetica, Arial, sans-serif, &amp;quot;Apple Color Emoji&amp;quot;, &amp;quot;Segoe UI Emoji&amp;quot;; font-style: normal; font-variant-ligatures: normal; font-variant-caps: normal; font-weight: 400; letter-spacing: normal; orphans: 2; text-indent: 0px; text-transform: none; widows: 2; word-spacing: 0px; -webkit-text-stroke-width: 0px; white-space: normal; text-decoration-thickness: initial; text-decoration-style: initial; text-decoration-color: initial; float: none; display: inline !important;&quot;&gt;&lt;font style=&quot;font-size: 18px;&quot;&gt;基于嵌入&lt;/font&gt;&lt;/span&gt;" style="text;whiteSpace=wrap;html=1;align=center;labelBackgroundColor=none;" vertex="1" parent="1">
          <mxGeometry x="925" y="253" width="100" height="40" as="geometry" />
        </mxCell>
        <mxCell id="1PzzervLume55XSzth8z-102" value="" style="edgeStyle=orthogonalEdgeStyle;rounded=0;orthogonalLoop=1;jettySize=auto;html=1;" edge="1" parent="1" source="1PzzervLume55XSzth8z-103" target="1PzzervLume55XSzth8z-97">
          <mxGeometry relative="1" as="geometry">
            <Array as="points">
              <mxPoint x="1160" y="303" />
              <mxPoint x="1160" y="303" />
            </Array>
          </mxGeometry>
        </mxCell>
        <mxCell id="1PzzervLume55XSzth8z-103" value="&lt;span style=&quot;color: rgb(31, 35, 40); font-family: -apple-system, BlinkMacSystemFont, &amp;quot;Segoe UI&amp;quot;, &amp;quot;Noto Sans&amp;quot;, Helvetica, Arial, sans-serif, &amp;quot;Apple Color Emoji&amp;quot;, &amp;quot;Segoe UI Emoji&amp;quot;; font-style: normal; font-variant-ligatures: normal; font-variant-caps: normal; font-weight: 400; letter-spacing: normal; orphans: 2; text-align: left; text-indent: 0px; text-transform: none; widows: 2; word-spacing: 0px; -webkit-text-stroke-width: 0px; white-space: normal; text-decoration-thickness: initial; text-decoration-style: initial; text-decoration-color: initial; float: none; display: inline !important;&quot;&gt;由地理距离等先验信息&lt;/span&gt;" style="text;whiteSpace=wrap;html=1;fontSize=18;labelBackgroundColor=none;" vertex="1" parent="1">
          <mxGeometry x="1070" y="253" width="190" height="40" as="geometry" />
        </mxCell>
        <mxCell id="1PzzervLume55XSzth8z-104" value="" style="rounded=0;whiteSpace=wrap;html=1;shadow=0;fillColor=#ffe6cc;strokeColor=#d79b00;" vertex="1" parent="1">
          <mxGeometry x="880" y="463" width="150" height="50" as="geometry" />
        </mxCell>
        <mxCell id="1PzzervLume55XSzth8z-105" value="" style="rounded=0;whiteSpace=wrap;html=1;shadow=0;fillColor=#ffe6cc;strokeColor=#d79b00;" vertex="1" parent="1">
          <mxGeometry x="890" y="453" width="150" height="50" as="geometry" />
        </mxCell>
        <mxCell id="1PzzervLume55XSzth8z-106" value="&lt;font style=&quot;font-size: 18px;&quot;&gt;多头图注意力网络&lt;/font&gt;" style="rounded=0;whiteSpace=wrap;html=1;fillColor=#ffe6cc;strokeColor=#d79b00;" vertex="1" parent="1">
          <mxGeometry x="900" y="443" width="150" height="50" as="geometry" />
        </mxCell>
        <mxCell id="1PzzervLume55XSzth8z-107" value="" style="rounded=1;whiteSpace=wrap;html=1;fillColor=#fff2cc;gradientColor=#ffd966;strokeColor=#d6b656;direction=south;" vertex="1" parent="1">
          <mxGeometry x="1320" y="395" width="590" height="200" as="geometry" />
        </mxCell>
        <mxCell id="1PzzervLume55XSzth8z-108" style="edgeStyle=orthogonalEdgeStyle;rounded=0;orthogonalLoop=1;jettySize=auto;html=1;exitX=0.5;exitY=0;exitDx=0;exitDy=0;entryX=0.5;entryY=1;entryDx=0;entryDy=0;" edge="1" parent="1" source="1PzzervLume55XSzth8z-109" target="1PzzervLume55XSzth8z-111">
          <mxGeometry relative="1" as="geometry" />
        </mxCell>
        <mxCell id="1PzzervLume55XSzth8z-109" value="&lt;font face=&quot;宋体&quot;&gt;分块&lt;/font&gt;" style="rounded=1;whiteSpace=wrap;html=1;fillColor=#fff2cc;strokeColor=#d6b656;gradientColor=#ffd966;fontSize=18;direction=south;" vertex="1" parent="1">
          <mxGeometry x="1340" y="413.75" width="50" height="150" as="geometry" />
        </mxCell>
        <mxCell id="1PzzervLume55XSzth8z-110" style="edgeStyle=orthogonalEdgeStyle;rounded=0;orthogonalLoop=1;jettySize=auto;html=1;exitX=0.5;exitY=0;exitDx=0;exitDy=0;entryX=0.5;entryY=1;entryDx=0;entryDy=0;" edge="1" parent="1" source="1PzzervLume55XSzth8z-111" target="1PzzervLume55XSzth8z-112">
          <mxGeometry relative="1" as="geometry" />
        </mxCell>
        <mxCell id="1PzzervLume55XSzth8z-111" value="&lt;span style=&quot;font-family: 宋体;&quot;&gt;&lt;font&gt;Patch高维嵌入&lt;/font&gt;&lt;/span&gt;" style="whiteSpace=wrap;html=1;rounded=1;fillColor=#fff2cc;gradientColor=#ffd966;strokeColor=#d6b656;fontSize=18;direction=south;" vertex="1" parent="1">
          <mxGeometry x="1410" y="414" width="50" height="150" as="geometry" />
        </mxCell>
        <mxCell id="1PzzervLume55XSzth8z-112" value="&lt;font face=&quot;宋体&quot;&gt;深度卷积&lt;/font&gt;" style="rounded=1;whiteSpace=wrap;html=1;fillColor=#fff2cc;strokeColor=#d6b656;gradientColor=#ffd966;fontSize=18;direction=south;" vertex="1" parent="1">
          <mxGeometry x="1480" y="414" width="50" height="150" as="geometry" />
        </mxCell>
        <mxCell id="1PzzervLume55XSzth8z-113" style="edgeStyle=orthogonalEdgeStyle;rounded=0;orthogonalLoop=1;jettySize=auto;html=1;exitX=0.5;exitY=0;exitDx=0;exitDy=0;entryX=0.5;entryY=1;entryDx=0;entryDy=0;" edge="1" parent="1" source="1PzzervLume55XSzth8z-114" target="1PzzervLume55XSzth8z-116">
          <mxGeometry relative="1" as="geometry" />
        </mxCell>
        <mxCell id="1PzzervLume55XSzth8z-114" value="&lt;font face=&quot;宋体&quot;&gt;残差加和&lt;/font&gt;" style="rounded=1;whiteSpace=wrap;html=1;fillColor=#fff2cc;strokeColor=#d6b656;gradientColor=#ffd966;fontSize=18;direction=south;" vertex="1" parent="1">
          <mxGeometry x="1548.75" y="413" width="50" height="150" as="geometry" />
        </mxCell>
        <mxCell id="1PzzervLume55XSzth8z-115" style="edgeStyle=orthogonalEdgeStyle;rounded=0;orthogonalLoop=1;jettySize=auto;html=1;exitX=0.5;exitY=0;exitDx=0;exitDy=0;entryX=0.5;entryY=1;entryDx=0;entryDy=0;" edge="1" parent="1" source="1PzzervLume55XSzth8z-116" target="1PzzervLume55XSzth8z-119">
          <mxGeometry relative="1" as="geometry" />
        </mxCell>
        <mxCell id="1PzzervLume55XSzth8z-116" value="&lt;font face=&quot;宋体&quot;&gt;逐点卷积&lt;/font&gt;" style="rounded=1;whiteSpace=wrap;html=1;fillColor=#fff2cc;strokeColor=#d6b656;gradientColor=#ffd966;fontSize=18;direction=south;" vertex="1" parent="1">
          <mxGeometry x="1619" y="413" width="50" height="150" as="geometry" />
        </mxCell>
        <mxCell id="1PzzervLume55XSzth8z-117" value="&lt;font face=&quot;宋体&quot;&gt;展平层&lt;/font&gt;" style="rounded=1;whiteSpace=wrap;html=1;fillColor=#fff2cc;strokeColor=#d6b656;gradientColor=#ffd966;fontSize=18;direction=south;" vertex="1" parent="1">
          <mxGeometry x="1833" y="415" width="50" height="150" as="geometry" />
        </mxCell>
        <mxCell id="1PzzervLume55XSzth8z-118" style="edgeStyle=orthogonalEdgeStyle;rounded=0;orthogonalLoop=1;jettySize=auto;html=1;exitX=0.5;exitY=0;exitDx=0;exitDy=0;entryX=0.5;entryY=1;entryDx=0;entryDy=0;" edge="1" parent="1" source="1PzzervLume55XSzth8z-119" target="1PzzervLume55XSzth8z-121">
          <mxGeometry relative="1" as="geometry" />
        </mxCell>
        <mxCell id="1PzzervLume55XSzth8z-119" value="&lt;font face=&quot;宋体&quot;&gt;展平全连接&lt;/font&gt;" style="rounded=1;whiteSpace=wrap;html=1;fillColor=#fff2cc;strokeColor=#d6b656;gradientColor=#ffd966;fontSize=18;direction=south;" vertex="1" parent="1">
          <mxGeometry x="1690" y="413.5" width="50" height="150" as="geometry" />
        </mxCell>
        <mxCell id="1PzzervLume55XSzth8z-120" style="edgeStyle=orthogonalEdgeStyle;rounded=0;orthogonalLoop=1;jettySize=auto;html=1;exitX=0.5;exitY=0;exitDx=0;exitDy=0;entryX=0.5;entryY=1;entryDx=0;entryDy=0;" edge="1" parent="1" source="1PzzervLume55XSzth8z-121" target="1PzzervLume55XSzth8z-117">
          <mxGeometry relative="1" as="geometry">
            <Array as="points">
              <mxPoint x="1812" y="490" />
            </Array>
          </mxGeometry>
        </mxCell>
        <mxCell id="1PzzervLume55XSzth8z-121" value="&lt;span style=&quot;font-family: 宋体;&quot;&gt;时间卷积神经网络&lt;/span&gt;" style="rounded=1;whiteSpace=wrap;html=1;fillColor=#fff2cc;strokeColor=#d6b656;gradientColor=#ffd966;fontSize=18;direction=south;" vertex="1" parent="1">
          <mxGeometry x="1762" y="414" width="50" height="150" as="geometry" />
        </mxCell>
        <mxCell id="1PzzervLume55XSzth8z-122" value="" style="rounded=1;whiteSpace=wrap;html=1;fillColor=#fff2cc;gradientColor=#ffd966;strokeColor=#d6b656;direction=south;" vertex="1" parent="1">
          <mxGeometry x="1318" y="160" width="590" height="195" as="geometry" />
        </mxCell>
        <mxCell id="1PzzervLume55XSzth8z-123" value="&lt;font style=&quot;font-size: 18px;&quot;&gt;趋势流&lt;/font&gt;" style="text;html=1;align=center;verticalAlign=middle;whiteSpace=wrap;rounded=0;direction=west;" vertex="1" parent="1">
          <mxGeometry x="1578.5" y="150" width="71.5" height="48.63" as="geometry" />
        </mxCell>
        <mxCell id="1PzzervLume55XSzth8z-124" style="edgeStyle=orthogonalEdgeStyle;rounded=0;orthogonalLoop=1;jettySize=auto;html=1;exitX=0.5;exitY=0;exitDx=0;exitDy=0;entryX=0.5;entryY=1;entryDx=0;entryDy=0;" edge="1" parent="1" source="1PzzervLume55XSzth8z-125" target="1PzzervLume55XSzth8z-127">
          <mxGeometry relative="1" as="geometry" />
        </mxCell>
        <mxCell id="1PzzervLume55XSzth8z-125" value="&lt;font face=&quot;宋体&quot;&gt;全连接层&lt;/font&gt;" style="rounded=1;whiteSpace=wrap;html=1;fillColor=#fff2cc;strokeColor=#d6b656;gradientColor=#ffd966;fontSize=18;direction=south;" vertex="1" parent="1">
          <mxGeometry x="1340" y="185" width="50" height="150" as="geometry" />
        </mxCell>
        <mxCell id="1PzzervLume55XSzth8z-126" style="edgeStyle=orthogonalEdgeStyle;rounded=0;orthogonalLoop=1;jettySize=auto;html=1;exitX=0.5;exitY=0;exitDx=0;exitDy=0;entryX=0.5;entryY=1;entryDx=0;entryDy=0;" edge="1" parent="1" source="1PzzervLume55XSzth8z-127" target="1PzzervLume55XSzth8z-129">
          <mxGeometry relative="1" as="geometry" />
        </mxCell>
        <mxCell id="1PzzervLume55XSzth8z-127" value="&lt;font face=&quot;宋体&quot;&gt;平均池化层&lt;/font&gt;" style="rounded=1;whiteSpace=wrap;html=1;fillColor=#fff2cc;strokeColor=#d6b656;gradientColor=#ffd966;fontSize=18;direction=south;" vertex="1" parent="1">
          <mxGeometry x="1413" y="185" width="50" height="150" as="geometry" />
        </mxCell>
        <mxCell id="1PzzervLume55XSzth8z-128" style="edgeStyle=orthogonalEdgeStyle;rounded=0;orthogonalLoop=1;jettySize=auto;html=1;exitX=0.5;exitY=0;exitDx=0;exitDy=0;entryX=0.5;entryY=1;entryDx=0;entryDy=0;" edge="1" parent="1" source="1PzzervLume55XSzth8z-129" target="1PzzervLume55XSzth8z-131">
          <mxGeometry relative="1" as="geometry" />
        </mxCell>
        <mxCell id="1PzzervLume55XSzth8z-129" value="&lt;font face=&quot;宋体&quot;&gt;批归一化&lt;/font&gt;" style="rounded=1;whiteSpace=wrap;html=1;fillColor=#fff2cc;strokeColor=#d6b656;gradientColor=#ffd966;fontSize=18;direction=south;" vertex="1" parent="1">
          <mxGeometry x="1490" y="185" width="50" height="150" as="geometry" />
        </mxCell>
        <mxCell id="1PzzervLume55XSzth8z-130" style="edgeStyle=orthogonalEdgeStyle;rounded=0;orthogonalLoop=1;jettySize=auto;html=1;exitX=0.5;exitY=0;exitDx=0;exitDy=0;entryX=0.5;entryY=1;entryDx=0;entryDy=0;" edge="1" parent="1" source="1PzzervLume55XSzth8z-131" target="1PzzervLume55XSzth8z-133">
          <mxGeometry relative="1" as="geometry" />
        </mxCell>
        <mxCell id="1PzzervLume55XSzth8z-131" value="&lt;font face=&quot;宋体&quot;&gt;Times&lt;/font&gt;&lt;div&gt;&lt;font face=&quot;宋体&quot;&gt;Block&lt;/font&gt;&lt;/div&gt;" style="rounded=1;whiteSpace=wrap;html=1;fillColor=#fff2cc;strokeColor=#d6b656;gradientColor=#ffd966;fontSize=18;direction=south;" vertex="1" parent="1">
          <mxGeometry x="1573" y="185" width="50" height="150" as="geometry" />
        </mxCell>
        <mxCell id="1PzzervLume55XSzth8z-132" style="edgeStyle=orthogonalEdgeStyle;rounded=0;orthogonalLoop=1;jettySize=auto;html=1;exitX=0.5;exitY=0;exitDx=0;exitDy=0;entryX=0.5;entryY=1;entryDx=0;entryDy=0;" edge="1" parent="1" source="1PzzervLume55XSzth8z-133" target="1PzzervLume55XSzth8z-136">
          <mxGeometry relative="1" as="geometry" />
        </mxCell>
        <mxCell id="1PzzervLume55XSzth8z-133" value="&lt;font face=&quot;宋体&quot;&gt;平均池化层&lt;/font&gt;" style="rounded=1;whiteSpace=wrap;html=1;fillColor=#fff2cc;strokeColor=#d6b656;gradientColor=#ffd966;fontSize=18;direction=south;" vertex="1" parent="1">
          <mxGeometry x="1651" y="185" width="50" height="150" as="geometry" />
        </mxCell>
        <mxCell id="1PzzervLume55XSzth8z-134" value="&lt;font face=&quot;宋体&quot;&gt;全连接层&lt;/font&gt;" style="rounded=1;whiteSpace=wrap;html=1;fillColor=#fff2cc;strokeColor=#d6b656;gradientColor=#ffd966;fontSize=18;direction=south;" vertex="1" parent="1">
          <mxGeometry x="1816" y="185" width="50" height="150" as="geometry" />
        </mxCell>
        <mxCell id="1PzzervLume55XSzth8z-135" style="edgeStyle=orthogonalEdgeStyle;rounded=0;orthogonalLoop=1;jettySize=auto;html=1;exitX=0.5;exitY=0;exitDx=0;exitDy=0;entryX=0.5;entryY=1;entryDx=0;entryDy=0;" edge="1" parent="1" source="1PzzervLume55XSzth8z-136" target="1PzzervLume55XSzth8z-134">
          <mxGeometry relative="1" as="geometry" />
        </mxCell>
        <mxCell id="1PzzervLume55XSzth8z-136" value="&lt;font face=&quot;宋体&quot;&gt;批归一化&lt;/font&gt;" style="rounded=1;whiteSpace=wrap;html=1;fillColor=#fff2cc;strokeColor=#d6b656;gradientColor=#ffd966;fontSize=18;direction=south;" vertex="1" parent="1">
          <mxGeometry x="1733" y="185" width="50" height="150" as="geometry" />
        </mxCell>
        <mxCell id="1PzzervLume55XSzth8z-137" value="&lt;font style=&quot;font-size: 18px;&quot;&gt;季节流&lt;/font&gt;" style="text;html=1;align=center;verticalAlign=middle;whiteSpace=wrap;rounded=0;direction=west;strokeWidth=18;" vertex="1" parent="1">
          <mxGeometry x="1506" y="563.5" width="195" height="30" as="geometry" />
        </mxCell>
        <mxCell id="1PzzervLume55XSzth8z-138" value="" style="endArrow=classic;html=1;rounded=0;exitX=1;exitY=0.5;exitDx=0;exitDy=0;entryX=0.514;entryY=0.999;entryDx=0;entryDy=0;entryPerimeter=0;" edge="1" parent="1" source="1PzzervLume55XSzth8z-91" target="1PzzervLume55XSzth8z-122">
          <mxGeometry width="50" height="50" relative="1" as="geometry">
            <mxPoint x="1300" y="410" as="sourcePoint" />
            <mxPoint x="1350" y="360" as="targetPoint" />
            <Array as="points">
              <mxPoint x="1290" y="385" />
              <mxPoint x="1290" y="320" />
              <mxPoint x="1290" y="260" />
              <mxPoint x="1300" y="260" />
            </Array>
          </mxGeometry>
        </mxCell>
        <mxCell id="1PzzervLume55XSzth8z-139" value="" style="endArrow=classic;html=1;rounded=0;exitX=1;exitY=0.5;exitDx=0;exitDy=0;entryX=0.474;entryY=0.999;entryDx=0;entryDy=0;entryPerimeter=0;" edge="1" parent="1" source="1PzzervLume55XSzth8z-91" target="1PzzervLume55XSzth8z-107">
          <mxGeometry width="50" height="50" relative="1" as="geometry">
            <mxPoint x="1300" y="410" as="sourcePoint" />
            <mxPoint x="1350" y="360" as="targetPoint" />
            <Array as="points">
              <mxPoint x="1290" y="385" />
              <mxPoint x="1290" y="490" />
              <mxPoint x="1300" y="490" />
            </Array>
          </mxGeometry>
        </mxCell>
        <mxCell id="1PzzervLume55XSzth8z-140" value="自&lt;div&gt;适&lt;/div&gt;&lt;div&gt;应&lt;/div&gt;&lt;div&gt;指&lt;/div&gt;&lt;div&gt;数&lt;/div&gt;&lt;div&gt;分&lt;/div&gt;&lt;div&gt;解&lt;/div&gt;" style="text;html=1;align=center;verticalAlign=middle;resizable=0;points=[];autosize=1;strokeColor=none;fillColor=none;" vertex="1" parent="1">
          <mxGeometry x="1280" y="330" width="40" height="110" as="geometry" />
        </mxCell>
        <mxCell id="1PzzervLume55XSzth8z-141" value="" style="endArrow=classic;html=1;rounded=0;exitX=0.5;exitY=0;exitDx=0;exitDy=0;entryX=0;entryY=0.5;entryDx=0;entryDy=0;" edge="1" parent="1" source="1PzzervLume55XSzth8z-90" target="1PzzervLume55XSzth8z-91">
          <mxGeometry width="50" height="50" relative="1" as="geometry">
            <mxPoint x="680" y="450" as="sourcePoint" />
            <mxPoint x="730" y="400" as="targetPoint" />
          </mxGeometry>
        </mxCell>
        <mxCell id="1PzzervLume55XSzth8z-142" value="" style="endArrow=classic;html=1;rounded=0;exitX=0.5;exitY=0;exitDx=0;exitDy=0;entryX=0.5;entryY=1;entryDx=0;entryDy=0;" edge="1" parent="1" source="1PzzervLume55XSzth8z-107" target="1PzzervLume55XSzth8z-144">
          <mxGeometry width="50" height="50" relative="1" as="geometry">
            <mxPoint x="1970" y="510" as="sourcePoint" />
            <mxPoint x="2020" y="380" as="targetPoint" />
            <Array as="points">
              <mxPoint x="1940" y="495" />
              <mxPoint x="1940" y="440" />
              <mxPoint x="1940" y="380" />
            </Array>
          </mxGeometry>
        </mxCell>
        <mxCell id="1PzzervLume55XSzth8z-143" value="" style="endArrow=classic;html=1;rounded=0;exitX=0.5;exitY=0;exitDx=0;exitDy=0;entryX=0.5;entryY=1;entryDx=0;entryDy=0;" edge="1" parent="1" source="1PzzervLume55XSzth8z-122" target="1PzzervLume55XSzth8z-144">
          <mxGeometry width="50" height="50" relative="1" as="geometry">
            <mxPoint x="2000" y="260" as="sourcePoint" />
            <mxPoint x="2020" y="380" as="targetPoint" />
            <Array as="points">
              <mxPoint x="1940" y="257" />
              <mxPoint x="1940" y="320" />
              <mxPoint x="1940" y="380" />
            </Array>
          </mxGeometry>
        </mxCell>
        <mxCell id="1PzzervLume55XSzth8z-144" value="&lt;font style=&quot;color: rgb(51, 51, 51); font-size: 18px;&quot;&gt;输出预测数据&lt;/font&gt;" style="rounded=1;whiteSpace=wrap;html=1;fillColor=#FF9933;fontColor=#ffffff;strokeColor=#B20000;direction=south;" vertex="1" parent="1">
          <mxGeometry x="1970" y="295" width="40" height="170" as="geometry" />
        </mxCell>
        <mxCell id="1PzzervLume55XSzth8z-145" value="" style="endArrow=classic;html=1;rounded=0;exitX=1;exitY=0.5;exitDx=0;exitDy=0;entryX=0.497;entryY=1.005;entryDx=0;entryDy=0;entryPerimeter=0;" edge="1" parent="1" source="1PzzervLume55XSzth8z-1" target="1PzzervLume55XSzth8z-90">
          <mxGeometry width="50" height="50" relative="1" as="geometry">
            <mxPoint x="610" y="590" as="sourcePoint" />
            <mxPoint x="660" y="540" as="targetPoint" />
          </mxGeometry>
        </mxCell>
      </root>
    </mxGraphModel>
  </diagram>
</mxfile>
